:SAMPLES-PER-SECOND 30
:FULLY-SPECIFIED
:DEGREES
101
root  4.16326673 39.18444416 -0.2042075546 -14.53497314 -49.64300537 8.122009277
lowerback  8.339289665 1.762099981 0.4115839899
upperback  2.065439939 2.405390024 1.991629958
thorax  -2.603070021 1.183990002 1.574480057
lowerneck  -10.07400036 5.335330009 -2.203700066
upperneck  14.41219997 6.843989849 4.708610058
head  5.760350227 3.557820082 2.366810083
lclavicle  0 -9.442270133e-015 7.951389973e-016
lhumerus  -5.107079983 -22.93379974 85.14350128
lradius  2.751399254e-031 -2.213288544e-031 141.1860046
lwrist  -7.062250077e-031 -0 -1.523959994
lhand  -1.496451383e-031 -27.76390076 20.11240005
lfingers  90 7.125020027 -90
lthumb  89.89689403 5.08795885 91.16245106
rclavicle  0 -9.442270133e-015 7.951389973e-016
rhumerus  9.322790146 32.36410141 -81.09429932
rradius  -2.620298582e-031 2.367040215e-031 137.9069977
rwrist  7.062250077e-031 -1.765562519e-031 -7.712009907
rhand  -7.920061211e-032 -33.2840004 9.303460121
rfingers  -90 -7.125020027 -90
rthumb  -92.93752616 -24.25625642 -97.11982154
rfemur  -3.80885005 18.83740044 19.26729965
rtibia  -0 0 54.32080078
rfoot  -4.983736717e-032 -27.66690063 -2.39902997
rtoes  5.373923086 19.29304026 -105.8922705
lfemur  -19.2458992 4.659890175 -17.82550049
ltibia  -0 0 54.2118988
lfoot  -0 -11.17210007 -7.272850037
ltoes  -4.250644065 -19.5611806 -102.515957
102
root  4.158022272 39.17933186 -0.1863800048 -14.15997314 -49.71800232 8.051025391
lowerback  8.109800339 1.877030015 0.593527019
upperback  1.975049973 2.57159996 1.915199995
thorax  -2.561959982 1.266919971 1.381700039
lowerneck  -10.04650021 5.311659813 -2.041549921
upperneck  14.3427 6.832300186 4.415810108
head  5.751709938 3.538579941 2.246320009
lclavicle  0 -9.442270133e-015 7.951389973e-016
lhumerus  -6.060029984 -23.15200043 85.9937973
lradius  2.750394575e-031 -2.214536909e-031 141.1600037
lwrist  -7.062250077e-031 -3.531125038e-031 -1.816910028
lhand  -1.496451383e-031 -27.76390076 20.11240005
lfingers  90 7.125020027 -90
lthumb  89.89689403 5.08795885 91.16245106
rclavicle  0 -9.442270133e-015 7.951389973e-016
rhumerus  8.457269669 32.64110184 -81.4312973
rradius  -2.626115991e-031 2.360584427e-031 138.0480042
rwrist  0 -1.765562519e-031 -6.757810116
rhand  -7.920061211e-032 -33.2840004 9.303460121
rfingers  -90 -7.125020027 -90
rthumb  -92.93752616 -24.25625642 -97.11982154
rfemur  -3.853519917 18.90139961 19.1128006
rtibia  -0 0 53.76050186
rfoot  -5.006413096e-032 -28.15789986 -1.861750007
rtoes  5.373923086 19.29304026 -105.8922705
lfemur  -19.75779915 5.478040218 -17.67980003
ltibia  -0 0 54.47999954
lfoot  -0 -10.89760017 -7.762300014
ltoes  -4.250644065 -19.5611806 -102.515957
103
root  4.163444324 39.19155692 -0.1711291122 -13.68103027 -49.67799377 7.968017578
lowerback  7.856979847 1.97645998 0.7264069915
upperback  1.825449944 2.715389967 1.888190031
thorax  -2.571739912 1.33920002 1.27038002
lowerneck  -9.800279617 5.274230003 -1.978549957
upperneck  14.08240032 6.820099831 4.110750198
head  5.642660141 3.512840033 2.125200033
lclavicle  0 -9.442270133e-015 7.951389973e-016
lhumerus  -7.021729946 -23.31679916 86.81919861
lradius  2.755912709e-031 -2.207666002e-031 141.3029938
lwrist  -7.062250077e-031 -3.531125038e-031 -2.102309942
lhand  -1.496451383e-031 -27.76390076 20.11240005
lfingers  90 7.125020027 -90
lthumb  89.89689403 5.08795885 91.16245106
rclavicle  0 -9.442270133e-015 7.951389973e-016
rhumerus  7.327040195 32.80590057 -81.85189819
rradius  -2.637210334e-031 2.348183488e-031 138.3179932
rwrist  1.412450015e-030 -1.765562519e-031 -5.733890057
rhand  -7.920061211e-032 -33.2840004 9.303460121
rfingers  -90 -7.125020027 -90
rthumb  -92.93752616 -24.25625642 -97.11982154
rfemur  -4.162149906 18.35370064 18.88229942
rtibia  -0 0 53.32569885
rfoot  -4.982146581e-032 -27.63199997 -3.616349936
rtoes  5.373923086 19.29304026 -105.8922705
lfemur  -20.33609962 6.074550152 -17.59199905
ltibia  -0 0 54.57120132
lfoot  -0 -10.51249981 -8.203650475
ltoes  -4.250644065 -19.5611806 -102.515957
104
root  4.173088825 39.27199897 -0.1564213375 -13.36297607 -49.63600159 8.051025391
lowerback  7.650599957 2.054229975 0.8214300275
upperback  1.727210045 2.824300051 1.798609972
thorax  -2.551399946 1.393839955 1.119400024
lowerneck  -9.550979614 5.267399788 -1.967079997
upperneck  13.77340031 6.845069885 3.884789944
head  5.511950016 3.509299994 2.03847003
lclavicle  0 -9.442270133e-015 7.951389973e-016
lhumerus  -7.759079933 -23.25900078 87.37200165
lradius  2.76237404e-031 -2.199575801e-031 141.470993
lwrist  -1.059337512e-030 -7.062250077e-031 -2.31427002
lhand  -1.496451383e-031 -27.76390076 20.11240005
lfingers  90 7.125020027 -90
lthumb  89.89689403 5.08795885 91.16245106
rclavicle  0 -9.442270133e-015 7.951389973e-016
rhumerus  6.238880157 32.92670059 -82.40730286
rradius  -2.648491187e-031 2.335452519e-031 138.5939941
rwrist  1.059337512e-030 -0 -4.692019939
rhand  -7.920061211e-032 -33.2840004 9.303460121
rfingers  -90 -7.125020027 -90
rthumb  -92.93752616 -24.25625642 -97.11982154
rfemur  -4.581059933 18.27529907 18.45299911
rtibia  -0 0 53.07410049
rfoot  -4.956317926e-032 -27.05610085 -2.706850052
rtoes  5.373923086 19.29304026 -105.8922705
lfemur  -20.7166996 6.53278017 -17.65999985
ltibia  -0 0 54.38410187
lfoot  -0 -9.567890167 -8.70359993
ltoes  -4.250644065 -19.5611806 -102.515957
105
root  4.193466667 39.38777653 -0.133185558 -13.25201416 -49.56399536 8.257995605
lowerback  7.476449966 2.106489897 1.009209991
upperback  1.738849998 2.900690079 1.617840052
thorax  -2.424940109 1.431409955 0.827778995
lowerneck  -9.45870018 5.275869846 -1.976070046
upperneck  13.60029984 6.884679794 3.71529007
head  5.447249889 3.516449928 1.982570052
lclavicle  0 -9.442270133e-015 7.951389973e-016
lhumerus  -8.162770271 -23.12249947 87.70230103
lradius  2.767089663e-031 -2.193640543e-031 141.5939941
lwrist  -3.531125038e-031 -3.531125038e-031 -2.401499987
lhand  -1.496451383e-031 -27.76390076 20.11240005
lfingers  90 7.125020027 -90
lthumb  89.89689403 5.08795885 91.16245106
rclavicle  0 -9.442270133e-015 7.951389973e-016
rhumerus  5.321750164 33.14179993 -82.97810364
rradius  -2.653824481e-031 2.329390405e-031 138.7250061
rwrist  7.062250077e-031 -1.765562519e-031 -4.05670023
rhand  -7.920061211e-032 -33.2840004 9.303460121
rfingers  -90 -7.125020027 -90
rthumb  -92.93752616 -24.25625642 -97.11982154
rfemur  -4.936590195 18.14290047 17.90769958
rtibia  -0 0 52.89229965
rfoot  -4.926868482e-032 -26.37770081 -1.297729969
rtoes  5.373923086 19.29304026 -105.8922705
lfemur  -20.90259933 6.791759968 -17.84550095
ltibia  -0 0 54.04320145
lfoot  -0 -8.169199944 -8.916419983
ltoes  -4.250644065 -19.5611806 -102.515957
106
root  4.216466738 39.54466572 -0.1034035575 -13.25299072 -49.32200623 8.559997559
lowerback  7.381720066 2.094769955 1.10402
upperback  1.714290023 2.887609959 1.451349974
thorax  -2.384150028 1.424870014 0.6078590155
lowerneck  -9.384699821 5.294469833 -1.964239955
upperneck  13.64220047 6.942329884 3.471479893
head  5.455949783 3.526829958 1.907860041
lclavicle  0 -9.442270133e-015 7.951389973e-016
lhumerus  -8.538969994 -23.02820015 88.01509857
lradius  2.773204806e-031 -2.185904651e-031 141.7539978
lwrist  -1.059337512e-030 -3.531125038e-031 -2.381150007
lhand  -1.496451383e-031 -27.76390076 20.11240005
lfingers  90 7.125020027 -90
lthumb  89.89689403 5.08795885 91.16245106
rclavicle  0 -9.442270133e-015 7.951389973e-016
rhumerus  4.322889805 33.6094017 -83.53520203
rradius  -2.655936935e-031 2.326981528e-031 138.7769928
rwrist  7.062250077e-031 -0 -3.857439995
rhand  -7.920061211e-032 -33.2840004 9.303460121
rfingers  -90 -7.125020027 -90
rthumb  -92.93752616 -24.25625642 -97.11982154
rfemur  -5.294290066 17.8621006 17.25029945
rtibia  -0 0 52.78969955
rfoot  -5.499201094e-032 -25.44799995 -0.5119889975
rtoes  5.373923086 19.29304026 -105.8922705
lfemur  -20.96209908 6.771269798 -18.14340019
ltibia  -0 0 53.48889923
lfoot  -0 -6.892769814 -8.864179611
ltoes  -4.250644065 -19.5611806 -102.515957
